<svg xmlns="http://www.w3.org/2000/svg" width="18" height="18" viewBox="0 0 18 18">
  <g id="vuesax_linear_calendar" data-name="vuesax/linear/calendar" transform="translate(-492 -188)">
    <g id="calendar" transform="translate(492 188)">
      <path id="Vector" d="M0,0V2.25" transform="translate(6 1.5)" fill="none" stroke="#292d32" stroke-linecap="round" stroke-linejoin="round" stroke-width="1"/>
      <path id="Vector-2" data-name="Vector" d="M0,0V2.25" transform="translate(12 1.5)" fill="none" stroke="#292d32" stroke-linecap="round" stroke-linejoin="round" stroke-width="1"/>
      <path id="Vector-3" data-name="Vector" d="M0,0H12.75" transform="translate(2.625 6.817)" fill="none" stroke="#292d32" stroke-linecap="round" stroke-linejoin="round" stroke-width="1"/>
      <path id="Vector-4" data-name="Vector" d="M13.5,3.75v6.375c0,2.25-1.125,3.75-3.75,3.75h-6c-2.625,0-3.75-1.5-3.75-3.75V3.75C0,1.5,1.125,0,3.75,0h6C12.375,0,13.5,1.5,13.5,3.75Z" transform="translate(2.25 2.625)" fill="none" stroke="#292d32" stroke-linecap="round" stroke-linejoin="round" stroke-width="1"/>
      <path id="Vector-5" data-name="Vector" d="M0,0H18V18H0Z" fill="none" opacity="0"/>
      <path id="Vector-6" data-name="Vector" d="M.495.5H.5" transform="translate(11.277 9.775)" fill="none" stroke="#292d32" stroke-linecap="round" stroke-linejoin="round" stroke-width="1"/>
      <path id="Vector-7" data-name="Vector" d="M.495.5H.5" transform="translate(11.277 12.025)" fill="none" stroke="#292d32" stroke-linecap="round" stroke-linejoin="round" stroke-width="1"/>
      <path id="Vector-8" data-name="Vector" d="M.495.5H.5" transform="translate(8.502 9.775)" fill="none" stroke="#292d32" stroke-linecap="round" stroke-linejoin="round" stroke-width="1"/>
      <path id="Vector-9" data-name="Vector" d="M.495.5H.5" transform="translate(8.502 12.025)" fill="none" stroke="#292d32" stroke-linecap="round" stroke-linejoin="round" stroke-width="1"/>
      <path id="Vector-10" data-name="Vector" d="M.495.5H.5" transform="translate(5.726 9.775)" fill="none" stroke="#292d32" stroke-linecap="round" stroke-linejoin="round" stroke-width="1"/>
      <path id="Vector-11" data-name="Vector" d="M.495.5H.5" transform="translate(5.726 12.025)" fill="none" stroke="#292d32" stroke-linecap="round" stroke-linejoin="round" stroke-width="1"/>
    </g>
  </g>
</svg>
