<svg xmlns="http://www.w3.org/2000/svg" width="15" height="15" viewBox="0 0 15 15">
  <g id="vuesax_linear_calendar-2" data-name="vuesax/linear/calendar-2" transform="translate(-172 -252)">
    <g id="calendar-2" transform="translate(172 252)">
      <path id="Vector" d="M0,0V1.875" transform="translate(5 1.25)" fill="none" stroke="#7f8384" stroke-linecap="round" stroke-linejoin="round" stroke-width="1"/>
      <path id="Vector-2" data-name="Vector" d="M0,0V1.875" transform="translate(10 1.25)" fill="none" stroke="#7f8384" stroke-linecap="round" stroke-linejoin="round" stroke-width="1"/>
      <path id="Vector-3" data-name="Vector" d="M0,0H10.625" transform="translate(2.188 5.681)" fill="none" stroke="#7f8384" stroke-linecap="round" stroke-linejoin="round" stroke-width="1"/>
      <path id="Vector-4" data-name="Vector" d="M11.25,3.125V8.438a2.8,2.8,0,0,1-3.125,3.125h-5A2.8,2.8,0,0,1,0,8.438V3.125A2.8,2.8,0,0,1,3.125,0h5A2.8,2.8,0,0,1,11.25,3.125Z" transform="translate(1.875 2.188)" fill="none" stroke="#7f8384" stroke-linecap="round" stroke-linejoin="round" stroke-width="1"/>
      <path id="Vector-5" data-name="Vector" d="M0,0H15V15H0Z" fill="none" opacity="0"/>
      <path id="Vector-6" data-name="Vector" d="M.495.5H.5" transform="translate(7.003 8.063)" fill="none" stroke="#7f8384" stroke-linecap="round" stroke-linejoin="round" stroke-width="1"/>
      <path id="Vector-7" data-name="Vector" d="M.495.5H.5" transform="translate(4.689 8.063)" fill="none" stroke="#7f8384" stroke-linecap="round" stroke-linejoin="round" stroke-width="1"/>
      <path id="Vector-8" data-name="Vector" d="M.495.5H.5" transform="translate(4.689 9.938)" fill="none" stroke="#7f8384" stroke-linecap="round" stroke-linejoin="round" stroke-width="1"/>
    </g>
  </g>
</svg>
