<svg xmlns="http://www.w3.org/2000/svg" xmlns:xlink="http://www.w3.org/1999/xlink" width="49" height="45.75" viewBox="0 0 49 45.75">
  <defs>
    <filter id="Ellipse_69" x="4.25" y="4.25" width="41.5" height="41.5" filterUnits="userSpaceOnUse">
      <feOffset dy="3" input="SourceAlpha"/>
      <feGaussianBlur stdDeviation="3" result="blur"/>
      <feFlood flood-opacity="0.051"/>
      <feComposite operator="in" in2="blur"/>
      <feComposite in="SourceGraphic"/>
    </filter>
  </defs>
  <g id="Glyph" transform="translate(-0.459 0.116)">
    <g id="Frame" transform="translate(0.459 -0.116)" fill="rgba(255,255,255,0)" stroke="rgba(0,0,0,0)" stroke-width="1">
      <rect width="49" height="43" stroke="none"/>
      <rect x="0.5" y="0.5" width="48" height="42" fill="none"/>
    </g>
    <g id="Group_17911" data-name="Group 17911" transform="translate(3.418 8.418)">
      <path id="Intersection_1" data-name="Intersection 1" d="M0,15.116a10.4,10.4,0,0,1,3.044-1.753,11.447,11.447,0,0,1,4.11-.7,11.4,11.4,0,0,1,4.1.7,10.5,10.5,0,0,1,3.047,1.756A10.391,10.391,0,0,1,0,15.116Zm4.817-5.3A5.131,5.131,0,0,1,3.1,7.9a5.622,5.622,0,0,1-.645-2.693,5.287,5.287,0,0,1,.639-2.642A5.11,5.11,0,0,1,4.823.692,4.318,4.318,0,0,1,9.5.686a5.093,5.093,0,0,1,1.723,1.861,5.346,5.346,0,0,1,.651,2.636A5.633,5.633,0,0,1,11.227,7.9,5.182,5.182,0,0,1,9.5,9.813a4.247,4.247,0,0,1-4.687,0Z" transform="translate(14.881 6.496)" fill="none" stroke="#7f8384" stroke-width="1.5"/>
      <g transform="matrix(1, 0, 0, 1, -2.96, -8.53)" filter="url(#Ellipse_69)">
        <circle id="Ellipse_69-2" data-name="Ellipse 69" cx="11" cy="11" r="11" transform="translate(14 11)" fill="none" stroke="#7f8384" stroke-width="1.5"/>
      </g>
    </g>
  </g>
</svg>
