<svg xmlns="http://www.w3.org/2000/svg" width="24" height="24" viewBox="0 0 24 24">
  <g id="vuesax_linear_note" data-name="vuesax/linear/note" transform="translate(-428 -252)">
    <g id="note">
      <path id="Vector" d="M16,4v9.75c0,3-1.79,4-4,4H4c-2.21,0-4-1-4-4V4C0,.75,1.79,0,4,0a2.237,2.237,0,0,0,.66,1.59,2.237,2.237,0,0,0,1.59.66h3.5A2.253,2.253,0,0,0,12,0C14.21,0,16,.75,16,4Z" transform="translate(432 256.25)" fill="none" stroke="#292d32" stroke-linecap="round" stroke-linejoin="round" stroke-width="1.5"/>
      <path id="Vector-2" data-name="Vector" d="M8,2.25A2.253,2.253,0,0,1,5.75,4.5H2.25a2.25,2.25,0,0,1,0-4.5h3.5A2.253,2.253,0,0,1,8,2.25Z" transform="translate(436 254)" fill="none" stroke="#292d32" stroke-linecap="round" stroke-linejoin="round" stroke-width="1.5"/>
      <path id="Vector-3" data-name="Vector" d="M0,0H8" transform="translate(436 269)" fill="none" stroke="#292d32" stroke-linecap="round" stroke-linejoin="round" stroke-width="1.5"/>
      <path id="Vector-4" data-name="Vector" d="M0,0H24V24H0Z" transform="translate(428 252)" fill="none" opacity="0"/>
      <path id="Vector-5" data-name="Vector" d="M-.251.766.5,1.5,2,0" transform="translate(442 264)" fill="none" stroke="#292d32" stroke-linecap="round" stroke-linejoin="round" stroke-width="1.5"/>
      <path id="Vector-6" data-name="Vector" d="M0,0H3.019" transform="translate(436 265)" fill="none" stroke="#292d32" stroke-linecap="round" stroke-linejoin="round" stroke-width="1.5"/>
    </g>
  </g>
</svg>
