<svg xmlns="http://www.w3.org/2000/svg" width="24" height="24" viewBox="0 0 24 24">
  <g id="vuesax_linear_chart" data-name="vuesax/linear/chart" transform="translate(-428)">
    <g id="chart" transform="translate(428)">
      <path id="Vector" d="M0,0H18" transform="translate(3 22)" fill="none" stroke="#292d32" stroke-linecap="round" stroke-linejoin="round" stroke-width="1.5"/>
      <g id="Group" transform="translate(3 2)">
        <path id="Vector-2" data-name="Vector" d="M2.6,0H1A1,1,0,0,0,0,1V9.62a1,1,0,0,0,1,1H2.6a1,1,0,0,0,1-1V1A1,1,0,0,0,2.6,0Z" transform="translate(0 6.38)" fill="none" stroke="#292d32" stroke-linecap="round" stroke-linejoin="round" stroke-width="1.5"/>
        <path id="Vector-3" data-name="Vector" d="M2.6,0H1A1,1,0,0,0,0,1V12.81a1,1,0,0,0,1,1H2.6a1,1,0,0,0,1-1V1A1,1,0,0,0,2.6,0Z" transform="translate(7.2 3.19)" fill="none" stroke="#292d32" stroke-linecap="round" stroke-linejoin="round" stroke-width="1.5"/>
        <path id="Vector-4" data-name="Vector" d="M2.6,0H1A1,1,0,0,0,0,1V16a1,1,0,0,0,1,1H2.6a1,1,0,0,0,1-1V1A1,1,0,0,0,2.6,0Z" transform="translate(14.4)" fill="none" stroke="#292d32" stroke-linecap="round" stroke-linejoin="round" stroke-width="1.5"/>
      </g>
      <path id="Vector-5" data-name="Vector" d="M0,0H24V24H0Z" fill="none" opacity="0"/>
    </g>
  </g>
</svg>
