<svg id="clipboard-text" xmlns="http://www.w3.org/2000/svg" width="18" height="18" viewBox="0 0 18 18">
  <path id="Vector" d="M0,0H5.25" transform="translate(6 9.15)" fill="none" stroke="#292d32" stroke-linecap="round" stroke-linejoin="round" stroke-width="1"/>
  <path id="Vector-2" data-name="Vector" d="M0,0H3.285" transform="translate(6 12.15)" fill="none" stroke="#292d32" stroke-linecap="round" stroke-linejoin="round" stroke-width="1"/>
  <path id="Vector-3" data-name="Vector" d="M1.5,3h3C6,3,6,2.25,6,1.5,6,0,5.25,0,4.5,0h-3C.75,0,0,0,0,1.5S.75,3,1.5,3Z" transform="translate(6 1.5)" fill="none" stroke="#292d32" stroke-linecap="round" stroke-linejoin="round" stroke-width="1"/>
  <path id="Vector-4" data-name="Vector" d="M9.75,0c2.5.135,3.75,1.057,3.75,4.485v4.5c0,3-.75,4.5-4.5,4.5H4.5c-3.75,0-4.5-1.5-4.5-4.5v-4.5C0,1.065,1.253.135,3.75,0" transform="translate(2.25 3.015)" fill="none" stroke="#292d32" stroke-linecap="round" stroke-linejoin="round" stroke-width="1"/>
  <path id="Vector-5" data-name="Vector" d="M0,0H18V18H0Z" fill="none" opacity="0"/>
</svg>
