<svg xmlns="http://www.w3.org/2000/svg" width="24" height="24" viewBox="0 0 24 24">
  <g id="vuesax_bold_clipboard-text" data-name="vuesax/bold/clipboard-text" transform="translate(-108 -252)">
    <g id="clipboard-text">
      <path id="Vector" d="M6.59,0H1.89A1.886,1.886,0,0,0,0,1.88v.94A1.878,1.878,0,0,0,1.88,4.7H6.59A1.878,1.878,0,0,0,8.47,2.82V1.88A1.871,1.871,0,0,0,6.59,0Z" transform="translate(115.76 254)" fill="#0098da"/>
      <path id="Vector-2" data-name="Vector" d="M13.95.737a2.9,2.9,0,0,1-2.89,2.89H6.36A2.9,2.9,0,0,1,3.47.737a.747.747,0,0,0-1.1-.65A4.472,4.472,0,0,0,0,4.037v9.41a4.481,4.481,0,0,0,4.47,4.47h8.48a4.481,4.481,0,0,0,4.47-4.47V4.037A4.472,4.472,0,0,0,15.05.087.747.747,0,0,0,13.95.737ZM9.09,12.867H4.71a.75.75,0,0,1,0-1.5H9.09a.75.75,0,0,1,0,1.5Zm2.62-4h-7a.75.75,0,0,1,0-1.5h7a.75.75,0,0,1,0,1.5Z" transform="translate(111.29 256.083)" fill="#0098da"/>
      <path id="Vector-3" data-name="Vector" d="M0,0H24V24H0Z" transform="translate(132 276) rotate(180)" fill="none" opacity="0"/>
    </g>
  </g>
</svg>
