<svg xmlns="http://www.w3.org/2000/svg" width="24" height="24" viewBox="0 0 24 24">
  <g id="vuesax_bold_note" data-name="vuesax/bold/note" transform="translate(-428 -252)">
    <g id="note">
      <path id="Vector" d="M0,0H24V24H0Z" transform="translate(428 252)" fill="none" opacity="0"/>
      <path id="Vector-2" data-name="Vector" d="M8,2.25A2.253,2.253,0,0,1,5.75,4.5H2.25a2.25,2.25,0,0,1,0-4.5h3.5A2.253,2.253,0,0,1,8,2.25Z" transform="translate(436 254)" fill="#0098da"/>
      <path id="Vector-3" data-name="Vector" d="M14.83.478a2.829,2.829,0,0,0-.77-.45.5.5,0,0,0-.64.42,3.737,3.737,0,0,1-3.67,3H6.25a3.722,3.722,0,0,1-2.65-1.1A3.7,3.7,0,0,1,2.58.458a.507.507,0,0,0-.65-.42C.77.508,0,1.568,0,3.7v9.75c0,3,1.79,4,4,4h8c2.21,0,4-1,4-4V3.7A3.9,3.9,0,0,0,14.83.478ZM4,7.7H7A.75.75,0,0,1,7,9.2H4A.75.75,0,0,1,4,7.7Zm8,5.5H4a.75.75,0,0,1,0-1.5h8a.75.75,0,0,1,0,1.5Z" transform="translate(432 256.552)" fill="#0098da"/>
      <path id="Vector-4" data-name="Vector" d="M0,0H24V24H0Z" transform="translate(452 276) rotate(180)" fill="none" opacity="0"/>
      <path id="Vector-5" data-name="Vector" d="M-.251.766.5,1.5,2,0" transform="translate(442 264)" fill="none" stroke="#e6f8ff" stroke-linecap="round" stroke-linejoin="round" stroke-width="1.5"/>
    </g>
  </g>
</svg>
