<svg xmlns="http://www.w3.org/2000/svg" width="24" height="24" viewBox="0 0 24 24">
  <g id="vuesax_bold_shop" data-name="vuesax/bold/shop" transform="translate(-172 -252)">
    <g id="shop">
      <path id="Vector" d="M20.789,7.02,20.5,4.25C20.079,1.23,18.709,0,15.779,0H5.019C2.079,0,.719,1.23.289,4.28L.019,7.03a4.11,4.11,0,0,0,.82,2.92,4.01,4.01,0,0,0,3.23,1.55A4.093,4.093,0,0,0,7.3,9.86a3.815,3.815,0,0,0,6.24.04,4.1,4.1,0,0,0,3.2,1.6,3.982,3.982,0,0,0,3.28-1.63A4.072,4.072,0,0,0,20.789,7.02Z" transform="translate(173.571 253.25)" fill="#0098da"/>
      <path id="Vector-2" data-name="Vector" d="M2.23.035A2.5,2.5,0,0,0,0,2.525v2.74a.491.491,0,0,0,.49.49H5.26a.491.491,0,0,0,.49-.49V2.875C5.76.785,4.53-.2,2.23.035Z" transform="translate(181.12 268.625)" fill="#0098da"/>
      <path id="Vector-3" data-name="Vector" d="M18.74,1.82V4.8a5,5,0,0,1-5,5,.491.491,0,0,1-.49-.49V6.92A3.79,3.79,0,0,0,12.1,3.96a3.881,3.881,0,0,0-2.71-.91,6.854,6.854,0,0,0-.77.04A3.485,3.485,0,0,0,5.49,6.57V9.31A.491.491,0,0,1,5,9.8a5,5,0,0,1-5-5V1.84A1,1,0,0,1,1.34.9a4.671,4.671,0,0,0,.82.2,2.325,2.325,0,0,0,.37.04,3.866,3.866,0,0,0,.48.03A5.081,5.081,0,0,0,6.21,0,4.852,4.852,0,0,0,9.37,1.17,4.788,4.788,0,0,0,12.52.02a5.052,5.052,0,0,0,3.16,1.15,4.578,4.578,0,0,0,.53-.03c.12-.01.23-.02.34-.04a4.818,4.818,0,0,0,.87-.22A1,1,0,0,1,18.74,1.82Z" transform="translate(174.63 264.58)" fill="#0098da"/>
      <path id="Vector-4" data-name="Vector" d="M0,0H24V24H0Z" transform="translate(196 276) rotate(180)" fill="none" opacity="0"/>
    </g>
  </g>
</svg>
